<svg xmlns="http://www.w3.org/2000/svg" width="60" height="68" viewBox="0 0 60 68" fill="none">
<path d="M51.3025 4.4793C51.3025 1.98686 53.22 0 55.6512 0C58.0824 0 59.9999 1.98686 59.9999 4.4793C59.9999 6.97175 58.0824 8.9586 55.6512 8.9586C53.2286 8.9586 51.3025 6.97175 51.3025 4.4793ZM59.3322 4.4793C59.3322 2.36826 57.6372 0.682983 55.6512 0.682983C53.6652 0.682983 51.9702 2.3594 51.9702 4.4793C51.9702 6.59921 53.6652 8.27562 55.6512 8.27562C57.6372 8.27562 59.3322 6.59921 59.3322 4.4793ZM57.7143 6.90966H56.9181L55.4971 4.64783H54.701V6.90966H54.0333V1.99573H56.0963C56.9524 1.99573 57.7827 2.23522 57.7827 3.29074C57.7827 4.25755 57.1321 4.61235 56.2847 4.63896L57.7143 6.90966ZM55.4971 3.95598C56.0878 3.95598 57.115 4.07129 57.115 3.29074C57.115 2.78515 56.473 2.69645 55.9594 2.69645H54.701V3.96485H55.4971V3.95598Z" fill="white"/>
<path d="M4.82808 0.0709229V25.7049L4.94793 25.8291C6.94251 23.0174 9.53632 21.4563 13.0375 21.4563C20.8789 21.4563 22.6937 27.337 22.6937 34.2112V51.6583H17.8656V35.0804C17.8656 30.3262 17.5061 26.0775 11.8904 26.0775C5.2561 26.0775 4.82808 32.4549 4.82808 37.7059V51.6494H0V0.0709229H4.82808Z" fill="white"/>
<path d="M58.3821 49.6803C58.3821 54.3725 58.3821 58.4349 55.4887 62.311C52.8349 65.8147 48.7345 67.4999 44.5056 67.4999C36.6043 67.4999 30.749 62.311 30.5692 53.9911H35.3973C35.4572 59.4283 39.2581 62.8698 44.4457 62.8698C51.9275 62.8698 53.554 57.1842 53.554 50.5584V47.0548H53.4342C51.14 50.1149 47.3991 51.9333 43.5982 51.9333C35.3288 51.9333 30.0813 44.7398 30.0813 36.5528C30.0813 28.3038 35.3888 20.9241 43.778 20.9241C47.6987 20.9241 51.14 22.7335 53.4342 25.9267H53.554V21.7312H58.3821V49.6803ZM35.0292 36.1093C35.0292 41.857 38.2908 47.3032 44.3173 47.3032C50.5322 47.3032 53.7937 42.1143 53.7937 36.1714C53.7937 30.2907 50.2326 25.5453 44.2574 25.5453C38.6503 25.5453 35.0292 30.61 35.0292 36.1093Z" fill="white"/>
<script xmlns=""/></svg>